<svg width="183" height="29" viewBox="0 0 183 29" fill="none" xmlns="http://www.w3.org/2000/svg">
<path d="M6.07031 16.6758H19.2148V1.89062H1.92969V28.0234H6.07031V16.6758ZM7.04688 6.53906V12.2617H14.4102V6.53906H7.04688ZM7.04688 29H0.953125V0.914062H20.1914V17.6523H7.04688V29ZM15.3867 5.5625V13.2383H6.07031V5.5625H15.3867ZM38.5508 28.0234H42.3789V1.89062H25.0938V28.0234H29.2344V16.6758H38.5508V28.0234ZM30.2109 6.53906V12.2617H37.5742V6.53906H30.2109ZM37.5742 17.6523H30.2109V29H24.1172V0.914062H43.3555V29H37.5742V17.6523ZM38.5508 5.5625V13.2383H29.2344V5.5625H38.5508ZM61.7148 16.6758V24.3516H48.2578V28.0234H65.543V13.2383H52.3984V5.5625H65.543V1.89062H48.2578V16.6758H61.7148ZM47.2812 17.6523V0.914062H66.5195V6.53906H53.375V12.2617H66.5195V29H47.2812V23.375H60.7383V17.6523H47.2812ZM84.8789 16.6758V24.3516H71.4219V28.0234H88.707V13.2383H75.5625V5.5625H88.707V1.89062H71.4219V16.6758H84.8789ZM70.4453 17.6523V0.914062H89.6836V6.53906H76.5391V12.2617H89.6836V29H70.4453V23.375H83.9023V17.6523H70.4453ZM98.7266 16.6758H111.871V1.89062H94.5859V28.0234H98.7266V16.6758ZM99.7031 6.53906V12.2617H107.066V6.53906H99.7031ZM99.7031 29H93.6094V0.914062H112.848V17.6523H99.7031V29ZM108.043 5.5625V13.2383H98.7266V5.5625H108.043ZM117.75 1.89062V28.0234H135.035V1.89062H117.75ZM130.23 6.53906H122.867V23.375H130.23V6.53906ZM136.012 0.914062V29H116.773V0.914062H136.012ZM131.207 24.3516H121.891V5.5625H131.207V24.3516ZM146.031 6.53906V12.2617H153.395V6.53906H146.031ZM145.055 28.0234V16.6758H147.613L154.176 28.0234H157.848L151.617 16.6758H158.199V1.89062H140.914V28.0234H145.055ZM154.371 5.5625V13.2383H145.055V5.5625H154.371ZM139.938 29V0.914062H159.176V17.6523H153.277L159.508 29H153.609L147.047 17.6523H146.031V29H139.938ZM171.305 28.0234H175.426V5.5625H181.676V1.89062H164.391V5.5625H171.305V28.0234ZM170.328 6.53906H163.414V0.914062H182.652V6.53906H176.402V29H170.328V6.53906Z" fill="white"/>
</svg>
